SplineFontDB: 3.2
FontName: Jerky-Sharp
FullName: Jerky Sharp
FamilyName: Jerky
Weight: Regular
Copyright: Copyright (c) 2023, Robin
UComments: "2023-1-12: Created with FontForge (http://fontforge.org)"
Version: 001.000
ItalicAngle: 0
UnderlinePosition: -40
UnderlineWidth: 20
Ascent: 400
Descent: 0
InvalidEm: 0
LayerCount: 2
Layer: 0 0 "Back" 1
Layer: 1 0 "Fore" 0
XUID: [1021 475 -824446587 12495150]
OS2Version: 0
OS2_WeightWidthSlopeOnly: 0
OS2_UseTypoMetrics: 1
CreationTime: 1673580372
ModificationTime: 1673580851
OS2TypoAscent: 0
OS2TypoAOffset: 1
OS2TypoDescent: 0
OS2TypoDOffset: 1
OS2TypoLinegap: 0
OS2WinAscent: 0
OS2WinAOffset: 1
OS2WinDescent: 0
OS2WinDOffset: 1
HheadAscent: 0
HheadAOffset: 1
HheadDescent: 0
HheadDOffset: 1
OS2Vendor: 'PfEd'
MarkAttachClasses: 1
DEI: 91125
Encoding: ISO8859-1
UnicodeInterp: none
NameList: AGL For New Fonts
DisplaySize: -48
AntiAlias: 0
FitToEm: 0
WinInfo: 0 29 10
BeginPrivate: 0
EndPrivate
BeginChars: 256 256

StartChar: A
Encoding: 65 65 0
Width: 400
Flags: HW
LayerCount: 2
Fore
SplineSet
200 400 m 1
 400 400 l 1
 400 0 l 1
 300 0 l 1
 300 100 l 1
 200 100 l 1
 200 0 l 1
 0 0 l 1
 0 400 l 1
 200 400 l 1
300 200 m 1
 300 300 l 1
 200 300 l 1
 200 200 l 1
 300 200 l 1
EndSplineSet
EndChar

StartChar: B
Encoding: 66 66 1
Width: 400
Flags: HW
LayerCount: 2
Fore
SplineSet
300 400 m 1
 300 300 l 1
 400 300 l 1
 400 0 l 1
 0 0 l 1
 0 400 l 1
 300 400 l 1
300 100 m 1
 300 200 l 1
 200 200 l 1
 200 300 l 1
 100 300 l 1
 100 200 l 1
 200 200 l 1
 200 100 l 1
 300 100 l 1
EndSplineSet
EndChar

StartChar: C
Encoding: 67 67 2
Width: 400
Flags: HW
LayerCount: 2
Fore
SplineSet
200 400 m 1
 300 400 l 1
 400 400 l 1
 400 300 l 1
 300 300 l 1
 200 300 l 1
 200 200 l 1
 200 100 l 1
 300 100 l 1
 400 100 l 1
 400 0 l 1
 300 0 l 1
 200 0 l 1
 100 0 l 1
 0 0 l 1
 0 100 l 1
 0 200 l 1
 0 300 l 1
 0 400 l 1
 100 400 l 1
 200 400 l 1
EndSplineSet
EndChar

StartChar: D
Encoding: 68 68 3
Width: 400
Flags: HW
LayerCount: 2
Fore
SplineSet
300 200 m 1
 300 300 l 1
 400 300 l 1
 400 200 l 1
 400 100 l 1
 300 100 l 1
 300 200 l 1
200 200 m 1
 200 100 l 1
 300 100 l 1
 300 0 l 1
 200 0 l 1
 100 0 l 1
 0 0 l 1
 0 100 l 1
 0 200 l 1
 0 300 l 1
 0 400 l 1
 100 400 l 1
 200 400 l 1
 300 400 l 1
 300 300 l 1
 200 300 l 1
 200 200 l 1
EndSplineSet
EndChar

StartChar: E
Encoding: 69 69 4
Width: 400
Flags: HW
LayerCount: 2
Fore
SplineSet
200 400 m 1
 300 400 l 1
 400 400 l 1
 400 300 l 1
 300 300 l 1
 300 200 l 1
 200 200 l 1
 200 100 l 1
 300 100 l 1
 400 100 l 1
 400 0 l 1
 300 0 l 1
 200 0 l 1
 100 0 l 1
 0 0 l 1
 0 100 l 1
 0 200 l 1
 0 300 l 1
 0 400 l 1
 100 400 l 1
 200 400 l 1
EndSplineSet
EndChar

StartChar: F
Encoding: 70 70 5
Width: 400
Flags: HW
LayerCount: 2
Fore
SplineSet
200 400 m 1
 300 400 l 1
 400 400 l 1
 400 300 l 1
 300 300 l 1
 200 300 l 1
 200 200 l 1
 300 200 l 1
 300 100 l 1
 200 100 l 1
 200 0 l 1
 100 0 l 1
 0 0 l 1
 0 100 l 1
 0 200 l 1
 0 300 l 1
 0 400 l 1
 100 400 l 1
 200 400 l 1
EndSplineSet
EndChar

StartChar: G
Encoding: 71 71 6
Width: 400
Flags: HW
LayerCount: 2
Fore
SplineSet
200 400 m 1
 300 400 l 1
 400 400 l 1
 400 300 l 1
 300 300 l 1
 200 300 l 1
 200 200 l 1
 200 100 l 1
 300 100 l 1
 300 200 l 1
 400 200 l 1
 400 100 l 1
 400 0 l 1
 300 0 l 1
 200 0 l 1
 100 0 l 1
 0 0 l 1
 0 100 l 1
 0 200 l 1
 0 300 l 1
 0 400 l 1
 100 400 l 1
 200 400 l 1
EndSplineSet
EndChar

StartChar: H
Encoding: 72 72 7
Width: 400
Flags: HW
LayerCount: 2
Fore
SplineSet
300 300 m 1
 300 400 l 1
 400 400 l 1
 400 300 l 1
 400 200 l 1
 400 100 l 1
 400 0 l 1
 300 0 l 1
 300 100 l 1
 200 100 l 1
 200 0 l 1
 100 0 l 1
 0 0 l 1
 0 100 l 1
 0 200 l 1
 0 300 l 1
 0 400 l 1
 100 400 l 1
 200 400 l 1
 200 300 l 1
 200 200 l 1
 300 200 l 1
 300 300 l 1
EndSplineSet
EndChar

StartChar: I
Encoding: 73 73 8
Width: 400
Flags: HW
LayerCount: 2
Fore
SplineSet
200 400 m 1
 300 400 l 1
 400 400 l 1
 400 300 l 1
 300 300 l 1
 300 200 l 1
 300 100 l 1
 400 100 l 1
 400 0 l 1
 300 0 l 1
 200 0 l 1
 100 0 l 1
 0 0 l 1
 0 100 l 1
 100 100 l 1
 100 200 l 1
 100 300 l 1
 0 300 l 1
 0 400 l 1
 100 400 l 1
 200 400 l 1
EndSplineSet
EndChar

StartChar: J
Encoding: 74 74 9
Width: 400
Flags: HW
LayerCount: 2
Fore
SplineSet
200 400 m 1
 300 400 l 1
 400 400 l 1
 400 300 l 1
 400 200 l 1
 400 100 l 1
 400 0 l 1
 300 0 l 1
 200 0 l 1
 100 0 l 1
 0 0 l 1
 0 100 l 1
 0 200 l 1
 100 200 l 1
 100 100 l 1
 200 100 l 1
 200 200 l 1
 200 300 l 1
 200 400 l 1
EndSplineSet
EndChar

StartChar: K
Encoding: 75 75 10
Width: 400
Flags: HW
LayerCount: 2
Fore
SplineSet
300 300 m 1
 300 400 l 1
 400 400 l 1
 400 300 l 1
 400 200 l 1
 300 200 l 1
 300 300 l 1
200 300 m 1
 200 200 l 1
 300 200 l 1
 300 100 l 1
 200 100 l 1
 200 0 l 1
 100 0 l 1
 0 0 l 1
 0 100 l 1
 0 200 l 1
 0 300 l 1
 0 400 l 1
 100 400 l 1
 200 400 l 1
 200 300 l 1
300 0 m 1
 300 100 l 1
 400 100 l 1
 400 0 l 1
 300 0 l 1
EndSplineSet
EndChar

StartChar: L
Encoding: 76 76 11
Width: 400
Flags: HW
LayerCount: 2
Fore
SplineSet
200 100 m 1
 300 100 l 1
 400 100 l 1
 400 0 l 1
 300 0 l 1
 200 0 l 1
 100 0 l 1
 0 0 l 1
 0 100 l 1
 0 200 l 1
 0 300 l 1
 0 400 l 1
 100 400 l 1
 200 400 l 1
 200 300 l 1
 200 200 l 1
 200 100 l 1
EndSplineSet
EndChar

StartChar: M
Encoding: 77 77 12
Width: 400
Flags: HW
LayerCount: 2
Fore
SplineSet
200 400 m 1
 300 400 l 1
 400 400 l 1
 400 300 l 1
 400 200 l 1
 400 100 l 1
 400 0 l 1
 300 0 l 1
 300 100 l 1
 300 200 l 1
 200 200 l 1
 200 100 l 1
 100 100 l 1
 100 0 l 1
 0 0 l 1
 0 100 l 1
 0 200 l 1
 0 300 l 1
 0 400 l 1
 100 400 l 1
 200 400 l 1
EndSplineSet
EndChar

StartChar: N
Encoding: 78 78 13
Width: 400
Flags: HW
LayerCount: 2
Fore
SplineSet
300 300 m 1
 300 400 l 1
 400 400 l 1
 400 300 l 1
 400 200 l 1
 400 100 l 1
 400 0 l 1
 300 0 l 1
 300 100 l 1
 200 100 l 1
 200 200 l 1
 300 200 l 1
 300 300 l 1
100 300 m 1
 200 300 l 1
 200 200 l 1
 100 200 l 1
 100 100 l 1
 100 0 l 1
 0 0 l 1
 0 100 l 1
 0 200 l 1
 0 300 l 1
 0 400 l 1
 100 400 l 1
 100 300 l 1
EndSplineSet
EndChar

StartChar: O
Encoding: 79 79 14
Width: 400
Flags: HW
LayerCount: 2
Fore
SplineSet
200 400 m 1
 400 400 l 1
 400 0 l 1
 0 0 l 1
 0 400 l 1
 200 400 l 1
300 200 m 1
 300 300 l 1
 200 300 l 1
 200 100 l 1
 300 100 l 1
 300 200 l 1
EndSplineSet
EndChar

StartChar: P
Encoding: 80 80 15
Width: 400
Flags: HW
LayerCount: 2
Fore
SplineSet
200 400 m 1
 400 400 l 1
 400 100 l 1
 200 100 l 1
 200 0 l 1
 0 0 l 1
 0 400 l 1
 200 400 l 1
300 200 m 1
 300 300 l 1
 200 300 l 1
 200 200 l 1
 300 200 l 1
EndSplineSet
EndChar

StartChar: Q
Encoding: 81 81 16
Width: 400
Flags: HW
LayerCount: 2
Fore
SplineSet
200 400 m 1
 400 400 l 1
 400 0 l 1
 0 0 l 1
 0 400 l 1
 200 400 l 1
300 200 m 1
 300 300 l 1
 100 300 l 1
 100 100 l 1
 200 100 l 1
 200 200 l 1
 300 200 l 1
EndSplineSet
EndChar

StartChar: R
Encoding: 82 82 17
Width: 400
Flags: HW
LayerCount: 2
Fore
SplineSet
200 400 m 1
 300 400 l 1
 400 400 l 1
 400 300 l 1
 400 200 l 1
 300 200 l 1
 300 300 l 1
 200 300 l 1
 200 200 l 1
 300 200 l 1
 300 100 l 1
 200 100 l 1
 200 0 l 1
 100 0 l 1
 0 0 l 1
 0 100 l 1
 0 200 l 1
 0 300 l 1
 0 400 l 1
 100 400 l 1
 200 400 l 1
300 0 m 1
 300 100 l 1
 400 100 l 1
 400 0 l 1
 300 0 l 1
EndSplineSet
EndChar

StartChar: S
Encoding: 83 83 18
Width: 400
Flags: HW
LayerCount: 2
Fore
SplineSet
200 400 m 1
 300 400 l 1
 400 400 l 1
 400 300 l 1
 300 300 l 1
 200 300 l 1
 200 200 l 1
 100 200 l 1
 0 200 l 1
 0 300 l 1
 0 400 l 1
 100 400 l 1
 200 400 l 1
100 100 m 1
 200 100 l 1
 200 200 l 1
 300 200 l 1
 400 200 l 1
 400 100 l 1
 400 0 l 1
 300 0 l 1
 200 0 l 1
 100 0 l 1
 0 0 l 1
 0 100 l 1
 100 100 l 1
EndSplineSet
EndChar

StartChar: T
Encoding: 84 84 19
Width: 400
Flags: HW
LayerCount: 2
Fore
SplineSet
200 400 m 1
 300 400 l 1
 400 400 l 1
 400 300 l 1
 300 300 l 1
 300 200 l 1
 300 100 l 1
 300 0 l 1
 200 0 l 1
 100 0 l 1
 100 100 l 1
 100 200 l 1
 100 300 l 1
 0 300 l 1
 0 400 l 1
 100 400 l 1
 200 400 l 1
EndSplineSet
EndChar

StartChar: U
Encoding: 85 85 20
Width: 400
Flags: HW
LayerCount: 2
Fore
SplineSet
300 300 m 1
 300 400 l 1
 400 400 l 1
 400 300 l 1
 400 200 l 1
 400 100 l 1
 400 0 l 1
 300 0 l 1
 200 0 l 1
 100 0 l 1
 0 0 l 1
 0 100 l 1
 0 200 l 1
 0 300 l 1
 0 400 l 1
 100 400 l 1
 200 400 l 1
 200 300 l 1
 200 200 l 1
 200 100 l 1
 300 100 l 1
 300 200 l 1
 300 300 l 1
EndSplineSet
EndChar

StartChar: V
Encoding: 86 86 21
Width: 400
Flags: HW
LayerCount: 2
Fore
SplineSet
300 300 m 1
 300 400 l 1
 400 400 l 1
 400 300 l 1
 400 200 l 1
 400 100 l 1
 300 100 l 1
 300 0 l 1
 200 0 l 1
 200 100 l 1
 100 100 l 1
 100 200 l 1
 0 200 l 1
 0 300 l 1
 0 400 l 1
 100 400 l 1
 200 400 l 1
 200 300 l 1
 200 200 l 1
 300 200 l 1
 300 300 l 1
EndSplineSet
EndChar

StartChar: W
Encoding: 87 87 22
Width: 400
Flags: HW
LayerCount: 2
Fore
SplineSet
300 300 m 1
 300 400 l 1
 400 400 l 1
 400 300 l 1
 400 200 l 1
 400 100 l 1
 400 0 l 1
 300 0 l 1
 200 0 l 1
 100 0 l 1
 0 0 l 1
 0 100 l 1
 0 200 l 1
 0 300 l 1
 0 400 l 1
 100 400 l 1
 100 300 l 1
 100 200 l 1
 200 200 l 1
 200 300 l 1
 300 300 l 1
EndSplineSet
EndChar

StartChar: X
Encoding: 88 88 23
Width: 400
Flags: HW
LayerCount: 2
Fore
SplineSet
200 400 m 1
 200 300 l 1
 300 300 l 1
 300 200 l 1
 400 200 l 1
 400 100 l 1
 400 0 l 1
 300 0 l 1
 200 0 l 1
 200 100 l 1
 100 100 l 1
 100 200 l 1
 0 200 l 1
 0 300 l 1
 0 400 l 1
 100 400 l 1
 200 400 l 1
300 300 m 1
 300 400 l 1
 400 400 l 1
 400 300 l 1
 300 300 l 1
0 0 m 1
 0 100 l 1
 100 100 l 1
 100 0 l 1
 0 0 l 1
EndSplineSet
EndChar

StartChar: Y
Encoding: 89 89 24
Width: 400
Flags: HW
LayerCount: 2
Fore
SplineSet
300 300 m 1
 300 400 l 1
 400 400 l 1
 400 300 l 1
 400 200 l 1
 300 200 l 1
 300 300 l 1
200 300 m 1
 200 200 l 1
 300 200 l 1
 300 100 l 1
 300 0 l 1
 200 0 l 1
 100 0 l 1
 100 100 l 1
 100 200 l 1
 0 200 l 1
 0 300 l 1
 0 400 l 1
 100 400 l 1
 200 400 l 1
 200 300 l 1
EndSplineSet
EndChar

StartChar: Z
Encoding: 90 90 25
Width: 400
Flags: HW
LayerCount: 2
Fore
SplineSet
300 300 m 1
 300 200 l 1
 200 200 l 1
 200 300 l 1
 100 300 l 1
 0 300 l 1
 0 400 l 1
 100 400 l 1
 200 400 l 1
 300 400 l 1
 400 400 l 1
 400 300 l 1
 300 300 l 1
100 200 m 1
 200 200 l 1
 200 100 l 1
 300 100 l 1
 400 100 l 1
 400 0 l 1
 300 0 l 1
 200 0 l 1
 100 0 l 1
 0 0 l 1
 0 100 l 1
 100 100 l 1
 100 200 l 1
EndSplineSet
EndChar

StartChar: a
Encoding: 97 97 26
Width: 400
Flags: HW
LayerCount: 2
Fore
SplineSet
200 400 m 1
 300 400 l 1
 400 400 l 1
 400 300 l 1
 400 200 l 1
 400 100 l 1
 400 0 l 1
 300 0 l 1
 200 0 l 1
 100 0 l 1
 0 0 l 1
 0 100 l 1
 0 200 l 1
 100 200 l 1
 200 200 l 1
 200 100 l 1
 300 100 l 1
 300 200 l 1
 200 200 l 1
 200 300 l 1
 100 300 l 1
 0 300 l 1
 0 400 l 1
 100 400 l 1
 200 400 l 1
EndSplineSet
EndChar

StartChar: b
Encoding: 98 98 27
Width: 400
Flags: HW
LayerCount: 2
Fore
SplineSet
200 300 m 1
 400 300 l 1
 400 0 l 1
 0 0 l 1
 0 400 l 1
 200 400 l 1
 200 300 l 1
300 100 m 1
 300 200 l 1
 200 200 l 1
 200 100 l 1
 300 100 l 1
EndSplineSet
EndChar

StartChar: c
Encoding: 99 99 28
Width: 400
Flags: HW
LayerCount: 2
Fore
SplineSet
200 300 m 1
 300 300 l 1
 400 300 l 1
 400 200 l 1
 300 200 l 1
 200 200 l 1
 200 100 l 1
 300 100 l 1
 400 100 l 1
 400 0 l 1
 300 0 l 1
 200 0 l 1
 100 0 l 1
 0 0 l 1
 0 100 l 1
 0 200 l 1
 0 300 l 1
 100 300 l 1
 200 300 l 1
EndSplineSet
EndChar

StartChar: d
Encoding: 100 100 29
Width: 400
Flags: HW
LayerCount: 2
Fore
SplineSet
200 400 m 1
 400 400 l 1
 400 0 l 1
 0 0 l 1
 0 300 l 1
 200 300 l 1
 200 400 l 1
200 100 m 1
 200 200 l 1
 100 200 l 1
 100 100 l 1
 200 100 l 1
EndSplineSet
EndChar

StartChar: e
Encoding: 101 101 30
Width: 400
Flags: HW
LayerCount: 2
Fore
SplineSet
200 400 m 1
 300 400 l 1
 400 400 l 1
 400 300 l 1
 400 200 l 1
 300 200 l 1
 200 200 l 1
 200 300 l 1
 100 300 l 1
 100 200 l 1
 200 200 l 1
 200 100 l 1
 300 100 l 1
 400 100 l 1
 400 0 l 1
 300 0 l 1
 200 0 l 1
 100 0 l 1
 0 0 l 1
 0 100 l 1
 0 200 l 1
 0 300 l 1
 0 400 l 1
 100 400 l 1
 200 400 l 1
EndSplineSet
EndChar

StartChar: f
Encoding: 102 102 31
Width: 400
Flags: HW
LayerCount: 2
Fore
SplineSet
200 400 m 1
 300 400 l 1
 400 400 l 1
 400 300 l 1
 300 300 l 1
 300 200 l 1
 400 200 l 1
 400 100 l 1
 300 100 l 1
 300 0 l 1
 200 0 l 1
 100 0 l 1
 100 100 l 1
 0 100 l 1
 0 200 l 1
 100 200 l 1
 100 300 l 1
 100 400 l 1
 200 400 l 1
EndSplineSet
EndChar

StartChar: g
Encoding: 103 103 32
Width: 400
Flags: HW
LayerCount: 2
Fore
SplineSet
200 400 m 1
 300 400 l 1
 400 400 l 1
 400 300 l 1
 400 200 l 1
 400 100 l 1
 400 0 l 1
 300 0 l 1
 200 0 l 1
 100 0 l 1
 0 0 l 1
 0 100 l 1
 100 100 l 1
 200 100 l 1
 200 200 l 1
 300 200 l 1
 300 300 l 1
 200 300 l 1
 200 200 l 1
 100 200 l 1
 0 200 l 1
 0 300 l 1
 0 400 l 1
 100 400 l 1
 200 400 l 1
EndSplineSet
EndChar

StartChar: h
Encoding: 104 104 33
Width: 400
Flags: HW
LayerCount: 2
Fore
SplineSet
200 300 m 1
 300 300 l 1
 400 300 l 1
 400 200 l 1
 400 100 l 1
 400 0 l 1
 300 0 l 1
 300 100 l 1
 300 200 l 1
 200 200 l 1
 200 100 l 1
 200 0 l 1
 100 0 l 1
 0 0 l 1
 0 100 l 1
 0 200 l 1
 0 300 l 1
 0 400 l 1
 100 400 l 1
 200 400 l 1
 200 300 l 1
EndSplineSet
EndChar

StartChar: i
Encoding: 105 105 34
Width: 400
Flags: HW
LayerCount: 2
Fore
SplineSet
300 300 m 1
 200 300 l 1
 100 300 l 1
 100 400 l 1
 200 400 l 1
 300 400 l 1
 300 300 l 1
300 200 m 1
 300 100 l 1
 400 100 l 1
 400 0 l 1
 300 0 l 1
 200 0 l 1
 100 0 l 1
 100 100 l 1
 0 100 l 1
 0 200 l 1
 100 200 l 1
 200 200 l 1
 300 200 l 1
EndSplineSet
EndChar

StartChar: j
Encoding: 106 106 35
Width: 400
Flags: HW
LayerCount: 2
Fore
SplineSet
200 400 m 1
 300 400 l 1
 400 400 l 1
 400 300 l 1
 300 300 l 1
 200 300 l 1
 200 400 l 1
200 200 m 1
 300 200 l 1
 400 200 l 1
 400 100 l 1
 400 0 l 1
 300 0 l 1
 200 0 l 1
 100 0 l 1
 0 0 l 1
 0 100 l 1
 0 200 l 1
 100 200 l 1
 100 100 l 1
 200 100 l 1
 200 200 l 1
EndSplineSet
EndChar

StartChar: k
Encoding: 107 107 36
Width: 400
Flags: HW
LayerCount: 2
Fore
SplineSet
200 300 m 1
 200 200 l 1
 300 200 l 1
 300 100 l 1
 200 100 l 1
 200 0 l 1
 100 0 l 1
 0 0 l 1
 0 100 l 1
 0 200 l 1
 0 300 l 1
 0 400 l 1
 100 400 l 1
 200 400 l 1
 200 300 l 1
300 200 m 1
 300 300 l 1
 400 300 l 1
 400 200 l 1
 300 200 l 1
300 0 m 1
 300 100 l 1
 400 100 l 1
 400 0 l 1
 300 0 l 1
EndSplineSet
EndChar

StartChar: l
Encoding: 108 108 37
Width: 400
Flags: HW
LayerCount: 2
Fore
SplineSet
300 200 m 1
 300 100 l 1
 400 100 l 1
 400 0 l 1
 300 0 l 1
 200 0 l 1
 100 0 l 1
 100 100 l 1
 100 200 l 1
 100 300 l 1
 0 300 l 1
 0 400 l 1
 100 400 l 1
 200 400 l 1
 300 400 l 1
 300 300 l 1
 300 200 l 1
EndSplineSet
EndChar

StartChar: m
Encoding: 109 109 38
Width: 400
Flags: HW
LayerCount: 2
Fore
SplineSet
200 300 m 1
 300 300 l 1
 400 300 l 1
 400 200 l 1
 400 100 l 1
 400 0 l 1
 300 0 l 1
 300 100 l 1
 300 200 l 1
 200 200 l 1
 200 100 l 1
 100 100 l 1
 100 0 l 1
 0 0 l 1
 0 100 l 1
 0 200 l 1
 0 300 l 1
 100 300 l 1
 200 300 l 1
EndSplineSet
EndChar

StartChar: n
Encoding: 110 110 39
Width: 400
Flags: HW
LayerCount: 2
Fore
SplineSet
200 300 m 1
 300 300 l 1
 400 300 l 1
 400 200 l 1
 400 100 l 1
 400 0 l 1
 300 0 l 1
 300 100 l 1
 300 200 l 1
 200 200 l 1
 200 100 l 1
 200 0 l 1
 100 0 l 1
 0 0 l 1
 0 100 l 1
 0 200 l 1
 0 300 l 1
 100 300 l 1
 200 300 l 1
EndSplineSet
EndChar

StartChar: o
Encoding: 111 111 40
Width: 400
Flags: HW
LayerCount: 2
Fore
SplineSet
200 300 m 1
 400 300 l 1
 400 0 l 1
 0 0 l 1
 0 300 l 1
 200 300 l 1
300 100 m 1
 300 200 l 1
 200 200 l 1
 200 100 l 1
 300 100 l 1
EndSplineSet
EndChar

StartChar: p
Encoding: 112 112 41
Width: 400
Flags: HW
LayerCount: 2
Fore
SplineSet
200 300 m 1
 300 300 l 1
 400 300 l 1
 400 200 l 1
 400 100 l 1
 300 100 l 1
 200 100 l 1
 200 0 l 1
 100 0 l 1
 0 0 l 1
 0 100 l 1
 0 200 l 1
 0 300 l 1
 100 300 l 1
 200 300 l 1
EndSplineSet
EndChar

StartChar: q
Encoding: 113 113 42
Width: 400
Flags: HW
LayerCount: 2
Fore
SplineSet
200 300 m 1
 300 300 l 1
 400 300 l 1
 400 200 l 1
 400 100 l 1
 400 0 l 1
 300 0 l 1
 200 0 l 1
 200 100 l 1
 100 100 l 1
 0 100 l 1
 0 200 l 1
 0 300 l 1
 100 300 l 1
 200 300 l 1
EndSplineSet
EndChar

StartChar: r
Encoding: 114 114 43
Width: 400
Flags: HW
LayerCount: 2
Fore
SplineSet
200 300 m 1
 300 300 l 1
 400 300 l 1
 400 200 l 1
 400 100 l 1
 300 100 l 1
 300 200 l 1
 200 200 l 1
 200 100 l 1
 200 0 l 1
 100 0 l 1
 0 0 l 1
 0 100 l 1
 0 200 l 1
 0 300 l 1
 100 300 l 1
 200 300 l 1
EndSplineSet
EndChar

StartChar: s
Encoding: 115 115 44
Width: 400
Flags: HW
LayerCount: 2
Fore
SplineSet
200 300 m 1
 300 300 l 1
 400 300 l 1
 400 200 l 1
 300 200 l 1
 300 100 l 1
 300 0 l 1
 200 0 l 1
 100 0 l 1
 0 0 l 1
 0 100 l 1
 100 100 l 1
 100 200 l 1
 100 300 l 1
 200 300 l 1
EndSplineSet
EndChar

StartChar: t
Encoding: 116 116 45
Width: 400
Flags: HW
LayerCount: 2
Fore
SplineSet
300 400 m 1
 300 300 l 1
 400 300 l 1
 400 200 l 1
 300 200 l 1
 300 100 l 1
 300 0 l 1
 200 0 l 1
 100 0 l 1
 100 100 l 1
 100 200 l 1
 0 200 l 1
 0 300 l 1
 100 300 l 1
 100 400 l 1
 200 400 l 1
 300 400 l 1
EndSplineSet
EndChar

StartChar: u
Encoding: 117 117 46
Width: 400
Flags: HW
LayerCount: 2
Fore
SplineSet
300 200 m 1
 300 300 l 1
 400 300 l 1
 400 200 l 1
 400 100 l 1
 400 0 l 1
 300 0 l 1
 200 0 l 1
 100 0 l 1
 0 0 l 1
 0 100 l 1
 0 200 l 1
 0 300 l 1
 100 300 l 1
 200 300 l 1
 200 200 l 1
 200 100 l 1
 300 100 l 1
 300 200 l 1
EndSplineSet
EndChar

StartChar: v
Encoding: 118 118 47
Width: 400
Flags: HW
LayerCount: 2
Fore
SplineSet
300 200 m 1
 300 300 l 1
 400 300 l 1
 400 200 l 1
 400 100 l 1
 300 100 l 1
 300 0 l 1
 200 0 l 1
 200 100 l 1
 100 100 l 1
 100 200 l 1
 0 200 l 1
 0 300 l 1
 100 300 l 1
 200 300 l 1
 200 200 l 1
 300 200 l 1
EndSplineSet
EndChar

StartChar: w
Encoding: 119 119 48
Width: 400
Flags: HW
LayerCount: 2
Fore
SplineSet
300 200 m 1
 300 300 l 1
 400 300 l 1
 400 200 l 1
 400 100 l 1
 400 0 l 1
 300 0 l 1
 200 0 l 1
 100 0 l 1
 0 0 l 1
 0 100 l 1
 0 200 l 1
 0 300 l 1
 100 300 l 1
 100 200 l 1
 100 100 l 1
 200 100 l 1
 200 200 l 1
 300 200 l 1
EndSplineSet
EndChar

StartChar: x
Encoding: 120 120 49
Width: 400
Flags: HW
LayerCount: 2
Fore
SplineSet
100 300 m 1
 200 300 l 1
 200 200 l 1
 100 200 l 1
 0 200 l 1
 0 300 l 1
 100 300 l 1
300 200 m 1
 300 300 l 1
 400 300 l 1
 400 200 l 1
 300 200 l 1
200 100 m 1
 200 200 l 1
 300 200 l 1
 300 100 l 1
 200 100 l 1
0 100 m 1
 100 100 l 1
 200 100 l 1
 200 0 l 1
 100 0 l 1
 0 0 l 1
 0 100 l 1
300 0 m 1
 300 100 l 1
 400 100 l 1
 400 0 l 1
 300 0 l 1
EndSplineSet
EndChar

StartChar: y
Encoding: 121 121 50
Width: 400
Flags: HW
LayerCount: 2
Fore
SplineSet
200 400 m 1
 300 400 l 1
 400 400 l 1
 400 300 l 1
 400 200 l 1
 400 100 l 1
 400 0 l 1
 300 0 l 1
 200 0 l 1
 100 0 l 1
 0 0 l 1
 0 100 l 1
 100 100 l 1
 200 100 l 1
 200 200 l 1
 100 200 l 1
 0 200 l 1
 0 300 l 1
 0 400 l 1
 100 400 l 1
 100 300 l 1
 200 300 l 1
 200 400 l 1
EndSplineSet
EndChar

StartChar: z
Encoding: 122 122 51
Width: 400
Flags: HW
LayerCount: 2
Fore
SplineSet
300 200 m 1
 300 100 l 1
 400 100 l 1
 400 0 l 1
 300 0 l 1
 200 0 l 1
 100 0 l 1
 100 100 l 1
 100 200 l 1
 0 200 l 1
 0 300 l 1
 100 300 l 1
 200 300 l 1
 300 300 l 1
 300 200 l 1
EndSplineSet
EndChar

StartChar: zero
Encoding: 48 48 52
Width: 400
Flags: HW
LayerCount: 2
Fore
SplineSet
200 400 m 1
 400 400 l 1
 400 0 l 1
 0 0 l 1
 0 400 l 1
 200 400 l 1
300 200 m 1
 300 300 l 1
 200 300 l 1
 200 100 l 1
 300 100 l 1
 300 200 l 1
EndSplineSet
EndChar

StartChar: one
Encoding: 49 49 53
Width: 400
Flags: HW
LayerCount: 2
Fore
SplineSet
300 200 m 1
 300 100 l 1
 400 100 l 1
 400 0 l 1
 300 0 l 1
 200 0 l 1
 100 0 l 1
 0 0 l 1
 0 100 l 1
 100 100 l 1
 100 200 l 1
 0 200 l 1
 0 300 l 1
 100 300 l 1
 100 400 l 1
 200 400 l 1
 300 400 l 1
 300 300 l 1
 300 200 l 1
EndSplineSet
EndChar

StartChar: two
Encoding: 50 50 54
Width: 400
Flags: HW
LayerCount: 2
Fore
SplineSet
300 400 m 1
 300 300 l 1
 400 300 l 1
 400 200 l 1
 300 200 l 1
 200 200 l 1
 200 300 l 1
 100 300 l 1
 0 300 l 1
 0 400 l 1
 100 400 l 1
 200 400 l 1
 300 400 l 1
0 200 m 1
 100 200 l 1
 200 200 l 1
 200 100 l 1
 300 100 l 1
 400 100 l 1
 400 0 l 1
 300 0 l 1
 200 0 l 1
 100 0 l 1
 0 0 l 1
 0 100 l 1
 0 200 l 1
EndSplineSet
EndChar

StartChar: three
Encoding: 51 51 55
Width: 400
Flags: HW
LayerCount: 2
Fore
SplineSet
200 400 m 1
 300 400 l 1
 400 400 l 1
 400 300 l 1
 400 200 l 1
 400 100 l 1
 400 0 l 1
 300 0 l 1
 200 0 l 1
 100 0 l 1
 0 0 l 1
 0 100 l 1
 100 100 l 1
 200 100 l 1
 200 200 l 1
 100 200 l 1
 100 300 l 1
 0 300 l 1
 0 400 l 1
 100 400 l 1
 200 400 l 1
EndSplineSet
EndChar

StartChar: four
Encoding: 52 52 56
Width: 400
Flags: HW
LayerCount: 2
Fore
SplineSet
200 400 m 1
 300 400 l 1
 400 400 l 1
 400 300 l 1
 400 200 l 1
 400 100 l 1
 400 0 l 1
 300 0 l 1
 200 0 l 1
 200 100 l 1
 100 100 l 1
 0 100 l 1
 0 200 l 1
 0 300 l 1
 0 400 l 1
 100 400 l 1
 100 300 l 1
 100 200 l 1
 200 200 l 1
 200 300 l 1
 200 400 l 1
EndSplineSet
EndChar

StartChar: five
Encoding: 53 53 57
Width: 400
Flags: HW
LayerCount: 2
Fore
SplineSet
200 400 m 1
 300 400 l 1
 400 400 l 1
 400 300 l 1
 300 300 l 1
 200 300 l 1
 200 200 l 1
 100 200 l 1
 0 200 l 1
 0 300 l 1
 0 400 l 1
 100 400 l 1
 200 400 l 1
100 100 m 1
 200 100 l 1
 200 200 l 1
 300 200 l 1
 400 200 l 1
 400 100 l 1
 300 100 l 1
 300 0 l 1
 200 0 l 1
 100 0 l 1
 0 0 l 1
 0 100 l 1
 100 100 l 1
EndSplineSet
EndChar

StartChar: six
Encoding: 54 54 58
Width: 400
Flags: HW
LayerCount: 2
Fore
SplineSet
200 400 m 1
 300 400 l 1
 400 400 l 1
 400 300 l 1
 300 300 l 1
 200 300 l 1
 200 200 l 1
 100 200 l 1
 100 100 l 1
 200 100 l 1
 200 200 l 1
 300 200 l 1
 400 200 l 1
 400 100 l 1
 400 0 l 1
 300 0 l 1
 200 0 l 1
 100 0 l 1
 0 0 l 1
 0 100 l 1
 0 200 l 1
 0 300 l 1
 0 400 l 1
 100 400 l 1
 200 400 l 1
EndSplineSet
EndChar

StartChar: seven
Encoding: 55 55 59
Width: 400
Flags: HW
LayerCount: 2
Fore
SplineSet
200 400 m 1
 300 400 l 1
 400 400 l 1
 400 300 l 1
 400 200 l 1
 300 200 l 1
 300 100 l 1
 300 0 l 1
 200 0 l 1
 100 0 l 1
 100 100 l 1
 100 200 l 1
 200 200 l 1
 200 300 l 1
 100 300 l 1
 0 300 l 1
 0 400 l 1
 100 400 l 1
 200 400 l 1
EndSplineSet
EndChar

StartChar: eight
Encoding: 56 56 60
Width: 400
Flags: HW
LayerCount: 2
Fore
SplineSet
200 400 m 1
 400 400 l 1
 400 0 l 1
 0 0 l 1
 0 300 l 1
 100 300 l 1
 100 400 l 1
 200 400 l 1
300 200 m 1
 300 300 l 1
 200 300 l 1
 200 200 l 1
 100 200 l 1
 100 100 l 1
 200 100 l 1
 200 200 l 1
 300 200 l 1
EndSplineSet
EndChar

StartChar: nine
Encoding: 57 57 61
Width: 400
Flags: HW
LayerCount: 2
Fore
SplineSet
200 400 m 1
 300 400 l 1
 400 400 l 1
 400 300 l 1
 400 200 l 1
 400 100 l 1
 400 0 l 1
 300 0 l 1
 200 0 l 1
 100 0 l 1
 0 0 l 1
 0 100 l 1
 100 100 l 1
 200 100 l 1
 200 200 l 1
 300 200 l 1
 300 300 l 1
 200 300 l 1
 200 200 l 1
 100 200 l 1
 0 200 l 1
 0 300 l 1
 0 400 l 1
 100 400 l 1
 200 400 l 1
EndSplineSet
EndChar

StartChar: exclam
Encoding: 33 33 62
Width: 200
Flags: HW
LayerCount: 2
Fore
SplineSet
0 0 m 1
 0 100 l 1
 200 100 l 1
 200 0 l 1
 0 0 l 1
0 200 m 1
 0 400 l 1
 200 400 l 1
 200 200 l 1
 0 200 l 1
EndSplineSet
EndChar

StartChar: period
Encoding: 46 46 108
Width: 200
Flags: HW
LayerCount: 2
Fore
SplineSet
0 0 m 1
 0 200 l 1
 200 200 l 1
 200 0 l 1
 0 0 l 1
EndSplineSet
EndChar

StartChar: question
Encoding: 63 63 115
Width: 400
Flags: HW
LayerCount: 2
Fore
SplineSet
200 400 m 1
 300 400 l 1
 400 400 l 1
 400 300 l 1
 300 300 l 1
 200 300 l 1
 100 300 l 1
 0 300 l 1
 0 400 l 1
 100 400 l 1
 200 400 l 1
200 300 m 1
 300 300 l 1
 400 300 l 1
 400 200 l 1
 300 200 l 1
 200 200 l 1
 200 300 l 1
100 100 m 1
 200 100 l 1
 300 100 l 1
 300 0 l 1
 200 0 l 1
 100 0 l 1
 100 100 l 1
EndSplineSet
EndChar

